<svg xmlns="http://www.w3.org/2000/svg" width="24" height="24" fill="none" viewBox="0 0 24 24" class="ee afk"><path fill="#6B6B6B" d="M21 4.324v15.352A1.324 1.324 0 0 1 19.676 21H4.324A1.324 1.324 0 0 1 3 19.676V4.324A1.324 1.324 0 0 1 4.324 3h15.352A1.324 1.324 0 0 1 21 4.324M8.295 9.886H5.648v8.478h2.636V9.886zm.221-2.914a1.52 1.52 0 0 0-1.51-1.533H6.96a1.533 1.533 0 0 0 0 3.066 1.52 1.52 0 0 0 1.556-1.487zm9.825 6.236c0-2.555-1.626-3.542-3.229-3.542a3.02 3.02 0 0 0-2.67 1.37h-.082V9.875H9.875v8.477h2.648v-4.494a1.754 1.754 0 0 1 1.579-1.893h.104c.837 0 1.464.523 1.464 1.858v4.54h2.647l.024-5.144z"></path></svg>