<svg width="14" height="14" viewBox="0 0 14 14" fill="none" xmlns="http://www.w3.org/2000/svg">
<path fill-rule="evenodd" clip-rule="evenodd" d="M8.88913 9.37975C8.82465 9.43983 8.77293 9.51228 8.73707 9.59278C8.7012 9.67328 8.68191 9.76018 8.68036 9.84829C8.6788 9.93641 8.69501 10.0239 8.72802 10.1056C8.76102 10.1874 8.81015 10.2616 8.87247 10.3239C8.93478 10.3862 9.00901 10.4353 9.09073 10.4684C9.17244 10.5014 9.25997 10.5176 9.34808 10.516C9.4362 10.5145 9.5231 10.4952 9.6036 10.4593C9.6841 10.4234 9.75655 10.3717 9.81662 10.3072L12.6604 7.4635L13.125 6.99975L12.6613 6.536L9.8175 3.69225C9.69379 3.57265 9.52805 3.50642 9.35598 3.50783C9.18391 3.50925 9.01928 3.57819 8.89755 3.69981C8.77582 3.82142 8.70672 3.98599 8.70515 4.15805C8.70357 4.33012 8.76964 4.49592 8.88913 4.61975L10.6129 6.3435H1.53125C1.3572 6.3435 1.19028 6.41264 1.06721 6.53571C0.94414 6.65878 0.875 6.8257 0.875 6.99975C0.875 7.1738 0.94414 7.34072 1.06721 7.46379C1.19028 7.58686 1.3572 7.656 1.53125 7.656H10.6129L8.88913 9.37975Z" fill="black"/>
</svg>
